<svg id="baseline-insert_invitation-24px" xmlns="http://www.w3.org/2000/svg" width="18" height="18" viewBox="0 0 18 18">
  <path id="Path_1305" data-name="Path 1305" d="M12.333,8.7H9v3.5h3.333ZM11.667,1V2.4H6.333V1H5V2.4H4.333A1.362,1.362,0,0,0,3.007,3.8L3,13.6A1.368,1.368,0,0,0,4.333,15h9.333A1.372,1.372,0,0,0,15,13.6V3.8a1.372,1.372,0,0,0-1.333-1.4H13V1Zm2,12.6H4.333V5.9h9.333Z" transform="translate(0 1)" fill="#573eea"/>
  <path id="Path_1306" data-name="Path 1306" d="M0,0H18V18H0Z" fill="none"/>
</svg>
