<svg xmlns="http://www.w3.org/2000/svg" width="12.125" height="12.125" viewBox="0 0 12.125 12.125"><defs><style>.a{fill:#fff;}</style></defs><g transform="translate(0 0)"><g transform="translate(0 0)"><path class="a" d="M95.275,129.87a6.063,6.063,0,1,0,6.063,6.063A6.062,6.062,0,0,0,95.275,129.87Zm1.78,3.678h-.842c-.3,0-.359.122-.359.429v.743h1.2l-.116,1.3H95.854v3.9H94.3v-3.88h-.809V134.72H94.3v-1.04c0-.976.522-1.486,1.68-1.486h1.077Z" transform="translate(-89.213 -129.87)"/></g><path class="a" d="M0,6.063a6.063,6.063,0,1,1,6.063,6.063A6.062,6.062,0,0,1,0,6.063Zm4.276.109h.809v3.88H6.641v-3.9H7.727l.116-1.3h-1.2V4.107c0-.308.062-.429.359-.429h.842V2.324H6.765c-1.158,0-1.68.51-1.68,1.486V4.85H4.276Z" transform="translate(0)"/></g></svg>