<svg version="1.2" baseProfile="tiny-ps" xmlns="http://www.w3.org/2000/svg" viewBox="0 0 24 20" width="24" height="20">
	<title>Layer</title>
	<style>
		tspan { white-space:pre }
		.shp0 { fill: #ffffff } 
	</style>
	<g id="Layer">
		<g id="Layer">
			<path id="Layer" class="shp0" d="M4.6 6.5C2.8 6.5 1.3 5.1 1.3 3.3L0 3.3L1.6 1.7L3.2 3.3L2 3.3C2 4.7 3.2 5.9 4.6 5.9C5 5.9 5.3 5.8 5.7 5.7L6.2 6.2C5.6 6.3 5.1 6.5 4.6 6.5Z" />
			<path id="Layer" class="shp0" d="M7.5 4.9L5.9 3.3L7.2 3.3C7.2 1.9 6 0.7 4.6 0.7C4.2 0.7 3.9 0.8 3.5 0.9L3 0.4C4.6 -0.5 6.5 0.1 7.4 1.7C7.7 2.2 7.8 2.7 7.8 3.3L9.1 3.3L7.5 4.9Z" />
			<path id="Layer" class="shp0" d="M17.3 12.1C17.3 13.8 15.9 15.3 14.1 15.3C12.3 15.3 10.9 13.9 10.9 12.1C10.9 11.2 11.3 10.4 11.8 9.9C12.4 9.3 13.2 9 14 9C15.8 9 17.3 10.4 17.3 12.1Z" />
			<path id="Layer" fill-rule="evenodd" class="shp0" d="M24 6.2L24 18C24 19.1 23.1 20 22 20L6.2 20C5.1 20 4.2 19.1 4.2 18L4.2 8.2L7.2 8.2L7.2 5.2L10.2 5.2L10.2 2.2L17.1 2.2L18.9 4.2L22 4.2C23.1 4.2 24 5.1 24 6.2ZM19.1 12.1C19.1 9.4 16.9 7.2 14.1 7.2C11.3 7.2 9.1 9.4 9.1 12.1C9.1 14.8 11.4 17 14.1 17C16.8 17 19.1 14.8 19.1 12.1Z" />
			<path id="Layer" class="shp0" d="M17.3 12.1C17.3 13.8 15.9 15.3 14.1 15.3C12.3 15.3 10.9 13.9 10.9 12.1C10.9 11.2 11.3 10.4 11.8 9.9C12.4 9.3 13.2 9 14 9C15.8 9 17.3 10.4 17.3 12.1Z" />
			<path id="Layer" class="shp0" d="M17.3 12.1C17.3 13.8 15.9 15.3 14.1 15.3C12.3 15.3 10.9 13.9 10.9 12.1C10.9 11.2 11.3 10.4 11.8 9.9C12.4 9.3 13.2 9 14 9C15.8 9 17.3 10.4 17.3 12.1Z" />
		</g>
	</g>
</svg>