<?xml version="1.0" encoding="utf-8"?>
<!-- Generator: Adobe Illustrator 26.0.1, SVG Export Plug-In . SVG Version: 6.00 Build 0)  -->
<svg version="1.1" id="Layer_1" xmlns="http://www.w3.org/2000/svg" xmlns:xlink="http://www.w3.org/1999/xlink" x="0px" y="0px"
	 viewBox="0 0 40 40" style="enable-background:new 0 0 40 40;" xml:space="preserve">
<style type="text/css">
	.st0{clip-path:url(#SVGID_00000075857051434054444660000010735569966696329600_);}
</style>
<g>
	<defs>
		<rect id="SVGID_1_" width="40" height="40"/>
	</defs>
	<clipPath id="SVGID_00000106128381866419128410000001053069229319662268_">
		<use xlink:href="#SVGID_1_"  style="overflow:visible;"/>
	</clipPath>
	<g style="clip-path:url(#SVGID_00000106128381866419128410000001053069229319662268_);">
		<path d="M12.6,16.5c-1.8,0-3.3-1.4-3.3-3.2H8l1.6-1.6l1.6,1.6H10c0,1.4,1.2,2.6,2.6,2.6c0.4,0,0.7-0.1,1.1-0.2l0.5,0.5
			C13.6,16.3,13.1,16.5,12.6,16.5z"/>
		<path d="M15.5,14.9l-1.6-1.6h1.3c0-1.4-1.2-2.6-2.6-2.6c-0.4,0-0.7,0.1-1.1,0.2L11,10.4c1.6-0.9,3.5-0.3,4.4,1.3
			c0.3,0.5,0.4,1,0.4,1.6h1.3L15.5,14.9z"/>
		<path d="M25.3,22.1c0,1.7-1.4,3.2-3.2,3.2s-3.2-1.4-3.2-3.2c0-0.9,0.4-1.7,0.9-2.2c0.6-0.6,1.4-0.9,2.2-0.9
			C23.8,19,25.3,20.4,25.3,22.1z"/>
		<path d="M30,14.2h-3.1l-1.8-2h-6.9v3h-3v3h-3V28c0,1.1,0.9,2,2,2H30c1.1,0,2-0.9,2-2V16.2C32,15.1,31.1,14.2,30,14.2z M22.1,27
			c-2.7,0-5-2.2-5-4.9s2.2-4.9,5-4.9s5,2.2,5,4.9S24.8,27,22.1,27z"/>
		<path d="M25.3,22.1c0,1.7-1.4,3.2-3.2,3.2s-3.2-1.4-3.2-3.2c0-0.9,0.4-1.7,0.9-2.2c0.6-0.6,1.4-0.9,2.2-0.9
			C23.8,19,25.3,20.4,25.3,22.1z"/>
		<path d="M25.3,22.1c0,1.7-1.4,3.2-3.2,3.2s-3.2-1.4-3.2-3.2c0-0.9,0.4-1.7,0.9-2.2c0.6-0.6,1.4-0.9,2.2-0.9
			C23.8,19,25.3,20.4,25.3,22.1z"/>
	</g>
</g>
</svg>
