<svg xmlns="http://www.w3.org/2000/svg" xmlns:xlink="http://www.w3.org/1999/xlink" width="36" height="36" viewBox="0 0 36 36">
  <defs>
    <clipPath id="clip-path">
      <path id="Path_1834" data-name="Path 1834" d="M673.07,372.55h36v36h-36Z" transform="translate(-673.07 -372.55)" fill="#573eea"/>
    </clipPath>
  </defs>
  <g id="Group_14773" data-name="Group 14773" transform="translate(-673.07 -372.55)">
    <g id="Group_14772" data-name="Group 14772" transform="translate(673.07 372.55)" clip-path="url(#clip-path)">
      <g id="Group_14771" data-name="Group 14771" transform="translate(5.566 3.729)">
        <path id="Path_1835" data-name="Path 1835" d="M686.837,380.346a2.655,2.655,0,1,0-2.682-2.655A2.67,2.67,0,0,0,686.837,380.346Zm-4.961,4.513-3.755,18.717h2.816l2.414-10.62,2.815,2.655v7.965h2.682v-9.956l-2.816-2.655.8-3.982a9.86,9.86,0,0,0,7.374,3.318v-2.655a6.607,6.607,0,0,1-5.765-3.186l-1.341-2.124a2.772,2.772,0,0,0-2.28-1.328c-.4,0-.67.134-1.072.134l-6.972,2.92V390.3h2.682v-4.513l2.414-.929" transform="translate(-676.781 -375.036)" fill="#573eea"/>
        <path id="Path_1772" data-name="Path 1772" d="M692.689,375.111h-3v1h3Zm-2,6.5h1v-3h-1Zm4.012-3.3.711-.709a5.6,5.6,0,0,0-.705-.705L694,377.6a4.5,4.5,0,1,0,.7.705Zm-3.513,6.3a3.5,3.5,0,1,1,3.5-3.5h0a3.5,3.5,0,0,1-3.492,3.5Z" transform="translate(-671.826 -374.999)" fill="#573eea"/>
      </g>
    </g>
  </g>
</svg>
