<svg xmlns="http://www.w3.org/2000/svg" xmlns:xlink="http://www.w3.org/1999/xlink" width="36" height="36" viewBox="0 0 36 36">
  <defs>
    <clipPath id="clip-path">
      <path id="Path_1834" data-name="Path 1834" d="M673.3,372.215h36v36h-36Z" transform="translate(-673.304 -372.215)" fill="#61a40a"/>
    </clipPath>
  </defs>
  <g id="Group_14765" data-name="Group 14765" transform="translate(-673.304 -372.215)">
    <g id="Group_14764" data-name="Group 14764" transform="translate(673.304 372.215)" clip-path="url(#clip-path)">
      <g id="Group_14763" data-name="Group 14763" transform="translate(4.864 2.726)">
        <path id="Path_1835" data-name="Path 1835" d="M686.6,380.681a2.655,2.655,0,1,0-2.682-2.655A2.67,2.67,0,0,0,686.6,380.681Zm-4.961,4.513-3.754,18.717H680.7l2.414-10.62,2.816,2.655v7.965h2.682v-9.957L685.8,391.3l.8-3.981a9.865,9.865,0,0,0,7.374,3.318v-2.655a6.605,6.605,0,0,1-5.765-3.186l-1.341-2.124a2.772,2.772,0,0,0-2.28-1.328c-.4,0-.67.133-1.073.133l-6.972,2.921v6.239h2.682v-4.514l2.413-.928" transform="translate(-676.547 -373.363)" fill="#61a40a"/>
        <path id="Path_200" data-name="Path 200" d="M694.721,376.961l-3.459,3.459-1.885-1.879-.74.741,2.625,2.625,4.2-4.2Zm-2.409-2.929a5.25,5.25,0,1,0,5.25,5.25A5.25,5.25,0,0,0,692.312,374.032Zm0,9.45a4.2,4.2,0,1,1,4.2-4.2A4.2,4.2,0,0,1,692.312,383.482Z" transform="translate(-671.289 -374.032)" fill="#61a40a"/>
      </g>
    </g>
  </g>
</svg>
