<svg xmlns="http://www.w3.org/2000/svg" xmlns:xlink="http://www.w3.org/1999/xlink" width="90" height="90" viewBox="0 0 90 90">
  <defs>
    <clipPath id="clip-path">
      <rect id="SVGID" width="64" height="65" transform="translate(0.5 -0.156)" fill="#573eea"/>
    </clipPath>
    <clipPath id="clip-path-2">
      <rect id="SVGID-2" data-name="SVGID" width="44.105" height="48.516" fill="#573eea"/>
    </clipPath>
  </defs>
  <g id="Group_14754" data-name="Group 14754" transform="translate(-640 -833)">
    <g id="Rectangle_6" data-name="Rectangle 6" transform="translate(640 833)" fill="#fff" stroke="#573eea" stroke-width="1.5">
      <rect width="90" height="90" rx="5" stroke="none"/>
      <rect x="0.75" y="0.75" width="88.5" height="88.5" rx="4.25" fill="none"/>
    </g>
    <g id="Icon" transform="translate(653.5 845.156)">
      <g id="Group_3284" data-name="Group 3284" clip-path="url(#clip-path)">
        <g id="Group_3283" data-name="Group 3283" transform="translate(10.291 8.086)">
          <g id="Group_3282" data-name="Group 3282">
            <g id="Group_3281" data-name="Group 3281" clip-path="url(#clip-path-2)">
              <path id="Path_7377" data-name="Path 7377" d="M683.9,386.454V384.1l2.507-2.426a1.4,1.4,0,0,0,.428-1.005v-8.528a1.443,1.443,0,0,0-1.466-1.42H683.9V369.3a1.468,1.468,0,0,0-2.935,0v1.421h-2.935V357.838a1.47,1.47,0,0,0-2.938,0v12.886h-1.466a1.445,1.445,0,0,0-1.469,1.42v8.528a1.4,1.4,0,0,0,.431,1.005l2.5,2.426v2.35a1.445,1.445,0,0,0,1.469,1.42h5.873a1.445,1.445,0,0,0,1.466-1.42Zm-2.935-7.2h-2.935a1.423,1.423,0,1,1,0-2.844h2.935a1.423,1.423,0,1,1,0,2.844Zm0,0" transform="translate(-642.766 -339.359)" fill="#573eea"/>
              <path id="Path_7378" data-name="Path 7378" d="M688.7,354.8a1.384,1.384,0,0,0-.1-1.135,1.459,1.459,0,0,0-.933-.693l-11.744-2.844a1.447,1.447,0,0,0-.711,0l-11.743,2.844a1.46,1.46,0,0,0-.93.693,1.372,1.372,0,0,0-.105,1.135l2.291,6.657h21.689ZM678.5,357.2h-5.87a1.423,1.423,0,1,1,0-2.844h5.87a1.423,1.423,0,1,1,0,2.844Zm0,0" transform="translate(-659.386 -350.088)" fill="#573eea"/>
            </g>
          </g>
          <path id="Path_7379" data-name="Path 7379" d="M668.78,358.2h5.87a4.406,4.406,0,0,0,4.154-2.841H664.626a4.408,4.408,0,0,0,4.154,2.841Zm0,0" transform="translate(-655.535 -341.146)" fill="#573eea"/>
          <path id="Path_7380" data-name="Path 7380" d="M675.946,369.993A4.38,4.38,0,0,1,674.3,369l-2.935-2.841a4.172,4.172,0,0,1-1.291-3.016,1.417,1.417,0,0,0-.582-1.124c-.121-.089-.208-.2-.326-.3H668.6a7.224,7.224,0,0,0-7.339,7.1v10.045h14.681Zm-5.873,3.1h-2.935a1.421,1.421,0,1,1,0-2.841h2.935a1.421,1.421,0,1,1,0,2.841Zm0,0" transform="translate(-661.233 -330.359)" fill="#573eea"/>
          <path id="Path_7381" data-name="Path 7381" d="M669.4,370.533a4.223,4.223,0,0,1,1.757,3.4,1.4,1.4,0,0,0,.431,1.005l2.935,2.844a1.5,1.5,0,0,0,2.076,0l2.938-2.844a1.386,1.386,0,0,0,.423-1.027,4.172,4.172,0,0,1,1.741-3.358,9.951,9.951,0,0,0,3.992-9.506h.145a2.844,2.844,0,1,0,0-5.684h-.148a7.3,7.3,0,0,1-7.194,5.684h-5.87a7.3,7.3,0,0,1-7.191-5.684h-.148a2.844,2.844,0,1,0,0,5.684h.124a9.954,9.954,0,0,0,3.989,9.487Zm0,0" transform="translate(-659.385 -341.146)" fill="#573eea"/>
          <path id="Path_7382" data-name="Path 7382" d="M677.9,374.688a4.18,4.18,0,0,1-1.289-3.016v-8.528a4.06,4.06,0,0,1,.205-1.218,7.581,7.581,0,0,0-1.674-.2h-.561c-.116.092-.2.208-.326.3a1.418,1.418,0,0,0-.582,1.124,4.18,4.18,0,0,1-1.288,3.016L669.445,369a4.371,4.371,0,0,1-1.644.992v8.881h12.013a4.1,4.1,0,0,1-.27-1.42v-1.078Zm0,0" transform="translate(-650.152 -330.359)" fill="#573eea"/>
        </g>
      </g>
    </g>
  </g>
</svg>
