<svg xmlns="http://www.w3.org/2000/svg" width="12.144" height="12.125" viewBox="0 0 12.144 12.125"><defs><style>.a{fill:#fff;}</style></defs><g transform="translate(0 0)"><g transform="translate(0 0)"><path class="a" d="M372.949,152.008a1.161,1.161,0,0,0-.666-.665,1.947,1.947,0,0,0-.652-.121c-.37-.017-.481-.02-1.419-.02s-1.048,0-1.419.02a1.947,1.947,0,0,0-.652.121,1.162,1.162,0,0,0-.666.665,1.935,1.935,0,0,0-.121.651c-.017.37-.02.48-.02,1.416s0,1.047.02,1.416a1.936,1.936,0,0,0,.121.651,1.161,1.161,0,0,0,.666.665,1.948,1.948,0,0,0,.652.121c.37.017.481.02,1.419.02s1.048,0,1.419-.02a1.948,1.948,0,0,0,.652-.121,1.161,1.161,0,0,0,.666-.665,1.934,1.934,0,0,0,.121-.651c.017-.37.02-.48.02-1.416s0-1.047-.02-1.416A1.934,1.934,0,0,0,372.949,152.008Zm-2.737,3.867a1.8,1.8,0,1,1,1.8-1.8A1.8,1.8,0,0,1,370.213,155.875Zm1.874-3.25a.421.421,0,1,1,.421-.421A.421.421,0,0,1,372.086,152.625Z" transform="translate(-364.134 -147.886)"/><path class="a" d="M379.491,162.171a1.168,1.168,0,1,0,1.17,1.168A1.169,1.169,0,0,0,379.491,162.171Z" transform="translate(-373.413 -157.15)"/><path class="a" d="M352.819,129.87a6.063,6.063,0,1,0,6.072,6.063A6.067,6.067,0,0,0,352.819,129.87Zm3.5,7.635a2.57,2.57,0,0,1-.163.851,1.793,1.793,0,0,1-1.027,1.025,2.582,2.582,0,0,1-.852.163c-.374.017-.494.021-1.448.021s-1.073,0-1.447-.021a2.582,2.582,0,0,1-.852-.163,1.794,1.794,0,0,1-1.027-1.025,2.567,2.567,0,0,1-.163-.851c-.017-.374-.021-.493-.021-1.445s0-1.071.021-1.445a2.566,2.566,0,0,1,.163-.851,1.794,1.794,0,0,1,1.027-1.025,2.582,2.582,0,0,1,.852-.163c.375-.017.494-.021,1.447-.021s1.073,0,1.448.021a2.582,2.582,0,0,1,.852.163,1.793,1.793,0,0,1,1.027,1.025,2.569,2.569,0,0,1,.163.851c.017.374.021.493.021,1.445S356.332,137.131,356.315,137.5Z" transform="translate(-346.747 -129.87)"/></g><path class="a" d="M0,6.063a6.072,6.072,0,1,1,6.072,6.063A6.067,6.067,0,0,1,0,6.063ZM4.631,2.706a2.581,2.581,0,0,0-.852.163A1.794,1.794,0,0,0,2.752,3.894a2.569,2.569,0,0,0-.163.851c-.017.374-.021.493-.021,1.445s0,1.071.021,1.445a2.57,2.57,0,0,0,.163.851A1.794,1.794,0,0,0,3.779,9.511a2.581,2.581,0,0,0,.852.163c.375.017.494.021,1.447.021s1.073,0,1.448-.021a2.581,2.581,0,0,0,.852-.163A1.793,1.793,0,0,0,9.4,8.485a2.57,2.57,0,0,0,.163-.851c.017-.374.021-.493.021-1.445s0-1.071-.021-1.445A2.569,2.569,0,0,0,9.4,3.894,1.793,1.793,0,0,0,8.378,2.868a2.581,2.581,0,0,0-.852-.163c-.374-.017-.494-.021-1.448-.021S5.005,2.688,4.631,2.706ZM4.66,9.043a1.947,1.947,0,0,1-.652-.121,1.162,1.162,0,0,1-.666-.665,1.938,1.938,0,0,1-.121-.651c-.017-.37-.02-.48-.02-1.416s0-1.047.02-1.416a1.937,1.937,0,0,1,.121-.651,1.162,1.162,0,0,1,.666-.665,1.947,1.947,0,0,1,.652-.121c.37-.017.481-.02,1.419-.02s1.048,0,1.419.02a1.948,1.948,0,0,1,.652.121,1.161,1.161,0,0,1,.666.665,1.933,1.933,0,0,1,.121.651c.017.37.02.48.02,1.416s0,1.047-.02,1.416a1.934,1.934,0,0,1-.121.651,1.161,1.161,0,0,1-.666.665,1.948,1.948,0,0,1-.652.121c-.37.017-.481.02-1.419.02S5.03,9.059,4.66,9.043ZM4.276,6.189a1.8,1.8,0,1,0,1.8-1.8A1.8,1.8,0,0,0,4.276,6.189ZM7.531,4.318A.421.421,0,1,0,7.952,3.9.421.421,0,0,0,7.531,4.318ZM4.908,6.189a1.17,1.17,0,1,1,1.17,1.168A1.169,1.169,0,0,1,4.908,6.189Z"/></g></svg>