<svg xmlns="http://www.w3.org/2000/svg" xmlns:xlink="http://www.w3.org/1999/xlink" width="90" height="90" viewBox="0 0 90 90">
  <defs>
    <clipPath id="clip-path">
      <rect id="Rectangle_355" data-name="Rectangle 355" width="64" height="65" transform="translate(0.5 0.094)" fill="#573eea"/>
    </clipPath>
  </defs>
  <g id="Group_14756" data-name="Group 14756" transform="translate(-640 -461)">
    <g id="Rectangle_6" data-name="Rectangle 6" transform="translate(640 461)" fill="#fff" stroke="#573eea" stroke-width="1.5">
      <rect width="90" height="90" rx="5" stroke="none"/>
      <rect x="0.75" y="0.75" width="88.5" height="88.5" rx="4.25" fill="none"/>
    </g>
    <g id="Group_1510" data-name="Group 1510" transform="translate(653.5 473.906)">
      <g id="Group_1509" data-name="Group 1509" clip-path="url(#clip-path)">
        <g id="Group_1508" data-name="Group 1508" transform="translate(17.427 4.177)">
          <g id="Group_1" data-name="Group 1" transform="translate(0 11.729)">
            <path id="Path_13" data-name="Path 13" d="M4.879,36.546a3.059,3.059,0,0,0,.637,4.182A3,3,0,0,0,9.7,40.1a19.175,19.175,0,0,1,4.8-5.11,26.3,26.3,0,0,1-1.679-7.221A56.441,56.441,0,0,0,4.879,36.546Z" transform="translate(-3.976 -2.001)" fill="#573eea"/>
            <path id="Path_14" data-name="Path 14" d="M29.462,27.307a62.042,62.042,0,0,0-11.377-8.176,5.086,5.086,0,0,0-1.49-.773,2.911,2.911,0,0,0-1.042-.224,4.412,4.412,0,0,0-1.65.1,4.277,4.277,0,0,0-2.82,2.269,58.414,58.414,0,0,0-6.55,9.581A2.994,2.994,0,0,0,9.7,33.108c.589-1.053,1.2-2.1,1.829-3.114q.824,5.526,1.642,11.057a3.517,3.517,0,0,0,.957,1.911A53.3,53.3,0,0,0,18.68,58.147c1.674,3.473,6.838.451,5.163-3.023a44.333,44.333,0,0,1-3.572-11.465,5.023,5.023,0,0,0,1.823-5.006q-.808-5.458-1.618-10.919a60.647,60.647,0,0,1,4.742,3.8c2.876,2.556,7.123-1.661,4.233-4.23Z" transform="translate(-4.192 -18.1)" fill="#573eea"/>
          </g>
          <path id="Path_15" data-name="Path 15" d="M16.762,18.914A5.217,5.217,0,1,1,11.542,13.7,5.216,5.216,0,0,1,16.762,18.914Z" transform="translate(-0.635 -13.7)" fill="#573eea"/>
        </g>
      </g>
    </g>
  </g>
</svg>
