<svg xmlns="http://www.w3.org/2000/svg" xmlns:xlink="http://www.w3.org/1999/xlink" width="90" height="90" viewBox="0 0 90 90">
  <defs>
    <clipPath id="clip-path">
      <rect id="SVGID" width="65" height="64" transform="translate(0.094 0.469)" fill="#573eea"/>
    </clipPath>
    <clipPath id="clip-path-2">
      <rect id="SVGID-2" data-name="SVGID" width="48.516" height="55.118" fill="#573eea"/>
    </clipPath>
  </defs>
  <g id="Group_14755" data-name="Group 14755" transform="translate(-641 -647)">
    <g id="Rectangle_5" data-name="Rectangle 5" transform="translate(641 647)" fill="#fff" stroke="#573eea" stroke-width="1.5">
      <rect width="90" height="90" rx="5" stroke="none"/>
      <rect x="0.75" y="0.75" width="88.5" height="88.5" rx="4.25" fill="none"/>
    </g>
    <g id="Icon" transform="translate(653.906 659.531)">
      <g id="Group_3279" data-name="Group 3279" clip-path="url(#clip-path)">
        <g id="Group_3278" data-name="Group 3278" transform="translate(8.086 4.785)">
          <path id="Path_7370" data-name="Path 7370" d="M691.053,376a8.076,8.076,0,1,0-16.15,0,8.075,8.075,0,1,0,16.15,0Zm0,0" transform="translate(-649.031 -367.818)" fill="#573eea"/>
          <g id="Group_3277" data-name="Group 3277">
            <g id="Group_3276" data-name="Group 3276" clip-path="url(#clip-path-2)">
              <path id="Path_7371" data-name="Path 7371" d="M683.862,376a8.075,8.075,0,1,0-16.148,0,8.074,8.074,0,1,0,16.148,0Zm0,0" transform="translate(-661.219 -367.818)" fill="#573eea"/>
              <path id="Path_7372" data-name="Path 7372" d="M681.466,402.916a3.23,3.23,0,0,0,0-6.461,9.717,9.717,0,0,1-9.69-9.687,1.614,1.614,0,1,1,3.229,0,6.479,6.479,0,0,0,6.461,6.458c.1,0,.194.032.291.032A4.811,4.811,0,0,1,686.309,390h3.229A6.459,6.459,0,1,1,696,383.537,6.479,6.479,0,0,1,689.538,390h3.232a4.813,4.813,0,0,1,4.552,3.261c.1,0,.194-.032.291-.032a6.476,6.476,0,0,0,6.458-6.458,1.616,1.616,0,1,1,3.232,0,9.717,9.717,0,0,1-9.69,9.687,3.23,3.23,0,0,0,0,6.461,16.2,16.2,0,0,0,11.913-5.218,16.547,16.547,0,0,0,4.234-10.929,12.914,12.914,0,0,0-12.919-12.919H692.77a4.867,4.867,0,0,1-6.461,0h-8.073a12.928,12.928,0,0,0-12.919,12.919,16.5,16.5,0,0,0,3.509,10.048,16.173,16.173,0,0,0,12.638,6.1Zm0,0" transform="translate(-665.281 -357.594)" fill="#573eea"/>
            </g>
          </g>
          <path id="Path_7373" data-name="Path 7373" d="M679.567,379.475a3.23,3.23,0,1,1-3.232-3.229,3.232,3.232,0,0,1,3.232,3.229Zm0,0" transform="translate(-652.078 -353.532)" fill="#573eea"/>
          <path id="Path_7374" data-name="Path 7374" d="M672.507,393.063v7.461H682.2v-7.461a6.411,6.411,0,0,1-.137-11.054,1.618,1.618,0,0,0-1.477-.97h-6.461a1.618,1.618,0,0,0-1.477.97,6.414,6.414,0,0,1-.137,11.054Zm0,0" transform="translate(-653.094 -345.406)" fill="#573eea"/>
          <path id="Path_7375" data-name="Path 7375" d="M690.219,393.876v-9.868a19.47,19.47,0,0,1-12.919,4.916v6.566h11.3a1.614,1.614,0,0,0,1.615-1.614Zm0,0" transform="translate(-644.968 -340.373)" fill="#573eea"/>
          <path id="Path_7376" data-name="Path 7376" d="M679.435,388.96a19.255,19.255,0,0,1-12.919-4.973v9.924a1.614,1.614,0,0,0,1.615,1.614h11.3Zm0,0" transform="translate(-663.25 -340.408)" fill="#573eea"/>
        </g>
      </g>
    </g>
  </g>
</svg>
