<svg id="Avatar_Icon" data-name="Avatar Icon" xmlns="http://www.w3.org/2000/svg" width="50" height="50.001" viewBox="0 0 50 50.001">
  <path id="Path_21" data-name="Path 21" d="M251.736,273.654l-7.459,4.068a6.641,6.641,0,0,0-1.2.85,24.979,24.979,0,0,0,32.1.084,6.8,6.8,0,0,0-1.317-.881l-7.985-3.994a3.045,3.045,0,0,1-1.686-2.722v-3.136a11.635,11.635,0,0,0,.757-.972,18.47,18.47,0,0,0,2.482-5,2.505,2.505,0,0,0,1.779-2.388v-3.346a2.487,2.487,0,0,0-.835-1.853v-4.835s.993-7.527-9.2-7.527-9.2,7.527-9.2,7.527v4.835a2.505,2.505,0,0,0-.835,1.853v3.346a2.509,2.509,0,0,0,1.155,2.1,16.654,16.654,0,0,0,3.028,6.259v3.057a3.048,3.048,0,0,1-1.588,2.673Zm0,0" transform="translate(-234.176 -234.454)" fill="#556080"/>
  <path id="Path_22" data-name="Path 22" d="M261.429,236a24.985,24.985,0,0,0-16.515,44.11,6.61,6.61,0,0,1,1.184-.845l7.465-4.068a3.042,3.042,0,0,0,1.587-2.673v-3.057a16.569,16.569,0,0,1-3.028-6.259,2.509,2.509,0,0,1-1.155-2.1v-3.346a2.479,2.479,0,0,1,.835-1.853v-4.835s-.993-7.527,9.2-7.527,9.2,7.527,9.2,7.527v4.835a2.5,2.5,0,0,1,.835,1.853v3.346a2.516,2.516,0,0,1-1.779,2.388,18.345,18.345,0,0,1-2.487,5,11.72,11.72,0,0,1-.752.972v3.136a3.046,3.046,0,0,0,1.681,2.722l7.99,3.994A6.536,6.536,0,0,1,277,280.2,25,25,0,0,0,261.429,236Zm0,0" transform="translate(-236.001 -236.001)" fill="rgba(79,59,236,0.1)"/>
</svg>
