<svg id="QR_Code" data-name="QR Code" xmlns="http://www.w3.org/2000/svg" width="52" height="38.071" viewBox="0 0 52 38.071">
  <path id="Path_1" data-name="Path 1" d="M221.451,250.9H206.9v14.279h14.555Zm-2.429,11.9h-9.7v-9.514h9.7Zm0,0" transform="translate(-200.105 -250.896)" fill="#f5f7f9"/>
  <rect id="Rectangle_1" data-name="Rectangle 1" width="4.845" height="4.753" transform="translate(11.648 4.765)" fill="#f5f7f9"/>
  <path id="Path_2" data-name="Path 2" d="M206.9,324.675h14.555V310.4H206.9Zm2.428-11.9h9.7v9.514h-9.7Zm0,0" transform="translate(-200.105 -286.603)" fill="#f5f7f9"/>
  <rect id="Rectangle_2" data-name="Rectangle 2" width="4.845" height="4.753" transform="translate(11.648 28.557)" fill="#f5f7f9"/>
  <path id="Path_3" data-name="Path 3" d="M266.4,250.9v14.279h14.555V250.9Zm12.126,11.9h-9.7v-9.514h9.7Zm0,0" transform="translate(-235.352 -250.896)" fill="#f5f7f9"/>
  <rect id="Rectangle_3" data-name="Rectangle 3" width="4.845" height="4.753" transform="translate(35.901 4.765)" fill="#f5f7f9"/>
  <path id="Path_4" data-name="Path 4" d="M211.753,292.561H206.9v4.75h7.27v-2.382h-2.413Zm0,0" transform="translate(-200.105 -275.9)" fill="#f5f7f9"/>
  <rect id="Rectangle_4" data-name="Rectangle 4" width="4.845" height="4.764" transform="translate(23.775 21.41)" fill="#f5f7f9"/>
  <rect id="Rectangle_5" data-name="Rectangle 5" width="4.857" height="2.37" transform="translate(14.061 16.661)" fill="#f5f7f9"/>
  <path id="Path_5" data-name="Path 5" d="M253.4,322.311h-4.842v2.367h2.413v2.383H253.4v-4.75Zm0,0" transform="translate(-224.786 -293.754)" fill="#f5f7f9"/>
  <path id="Path_6" data-name="Path 6" d="M239.075,292.561v2.367h-2.429v2.382H241.5v-4.75Zm0,0" transform="translate(-217.728 -275.9)" fill="#f5f7f9"/>
  <rect id="Rectangle_6" data-name="Rectangle 6" width="2.428" height="4.765" transform="translate(26.188 9.514)" fill="#f5f7f9"/>
  <path id="Path_7" data-name="Path 7" d="M256.91,294.928v2.382h4.856v-4.75h-7.285v2.367Zm0,0" transform="translate(-228.293 -275.9)" fill="#f5f7f9"/>
  <rect id="Rectangle_7" data-name="Rectangle 7" width="2.416" height="2.382" transform="translate(23.775 14.279)" fill="#f5f7f9"/>
  <rect id="Rectangle_8" data-name="Rectangle 8" width="4.857" height="4.765" transform="translate(28.616 33.307)" fill="#f5f7f9"/>
  <rect id="Rectangle_9" data-name="Rectangle 9" width="2.416" height="4.765" transform="translate(23.775 33.307)" fill="#f5f7f9"/>
  <rect id="Rectangle_10" data-name="Rectangle 10" width="2.428" height="2.382" transform="translate(28.616 26.175)" fill="#f5f7f9"/>
  <path id="Path_8" data-name="Path 8" d="M253.4,258.028v-4.749h-2.429V250.9h-2.413v9.514h2.413v-2.382Zm0,0" transform="translate(-224.786 -250.896)" fill="#f5f7f9"/>
  <rect id="Rectangle_11" data-name="Rectangle 11" width="2.416" height="4.765" transform="translate(35.901 33.307)" fill="#f5f7f9"/>
  <rect id="Rectangle_12" data-name="Rectangle 12" width="4.845" height="2.37" transform="translate(35.901 28.557)" fill="#f5f7f9"/>
  <rect id="Rectangle_13" data-name="Rectangle 13" width="2.428" height="2.382" transform="translate(33.473 30.925)" fill="#f5f7f9"/>
  <rect id="Rectangle_14" data-name="Rectangle 14" width="2.428" height="2.37" transform="translate(31.045 28.557)" fill="#f5f7f9"/>
  <path id="Path_9" data-name="Path 9" d="M290.189,310.4v2.382h2.428v2.382h2.429V310.4h-4.857Zm0,0" transform="translate(-249.446 -286.603)" fill="#f5f7f9"/>
  <path id="Path_10" data-name="Path 10" d="M292.617,328.231h-2.428v7.147h4.857v-4.765h-2.429Zm0,0" transform="translate(-249.446 -297.307)" fill="#f5f7f9"/>
  <path id="Path_11" data-name="Path 11" d="M266.4,306.821V309.2h7.27v-4.765h-4.842v2.382Zm0,0" transform="translate(-235.352 -283.028)" fill="#f5f7f9"/>
  <path id="Path_12" data-name="Path 12" d="M278.311,292.561v2.367h4.842v2.382h4.857v-4.75h-9.7Zm0,0" transform="translate(-242.41 -275.9)" fill="#f5f7f9"/>
  <path id="line" d="M129.793,463.5h52" transform="translate(-129.793 -443.513)" fill="none" stroke="#f5f7f9" stroke-width="1"/>
</svg>
