<svg xmlns="http://www.w3.org/2000/svg" xmlns:xlink="http://www.w3.org/1999/xlink" width="90" height="90" viewBox="0 0 90 90">
  <defs>
    <clipPath id="clip-path">
      <rect id="Rectangle_4168" data-name="Rectangle 4168" width="64" height="64" transform="translate(0)" fill="#573eea"/>
    </clipPath>
  </defs>
  <g id="Group_14882" data-name="Group 14882" transform="translate(-645 -1018)">
    <g id="Rectangle_5" data-name="Rectangle 5" transform="translate(645 1018)" fill="#fff" stroke="#573eea" stroke-width="1.5">
      <rect width="90" height="90" rx="5" stroke="none"/>
      <rect x="0.75" y="0.75" width="88.5" height="88.5" rx="4.25" fill="none"/>
    </g>
    <g id="Group_14881" data-name="Group 14881" transform="translate(-409.938 630.998)">
      <g id="Group_9302" data-name="Group 9302" transform="translate(1067.938 400.002)" clip-path="url(#clip-path)">
        <g id="Group_9302-2" data-name="Group 9302" transform="translate(2.56 10.291)">
          <path id="Path_14157" data-name="Path 14157" d="M1079.672,420.55v-3.714a.757.757,0,0,1,.755-.755.747.747,0,0,1,.755.739v3.729a.747.747,0,0,1-.739.755h-.016A.757.757,0,0,1,1079.672,420.55Z" transform="translate(-1074.722 -416.082)" fill="#573eea"/>
          <path id="Path_14158" data-name="Path 14158" d="M1096.647,420.551v-3.714a.748.748,0,0,1,.739-.755h.016a.757.757,0,0,1,.754.755v3.714a.757.757,0,0,1-.754.755.747.747,0,0,1-.755-.739Z" transform="translate(-1080.833 -416.082)" fill="#573eea"/>
          <path id="Path_14159" data-name="Path 14159" d="M1113.6,420.551v-3.714a.747.747,0,0,1,.739-.755h.015a.757.757,0,0,1,.755.755v3.714a.757.757,0,0,1-.755.755.747.747,0,0,1-.755-.739Z" transform="translate(-1086.937 -416.082)" fill="#573eea"/>
          <path id="Path_14160" data-name="Path 14160" d="M1093.17,443.043a6.754,6.754,0,0,0,1.315,4.445,17.1,17.1,0,0,0-6.136,7.816h-16.411v-22.25h24.054a9.3,9.3,0,0,0-2.822,6.459Z" transform="translate(-1071.938 -422.192)" fill="#573eea"/>
          <path id="Path_14161" data-name="Path 14161" d="M1105.062,422.978v3.832a8.644,8.644,0,0,0-2.43-.392,9.386,9.386,0,0,0-2.851.392h-27.844v-3.818a1.086,1.086,0,0,1,1.07-1.1h1.659v.755a2.97,2.97,0,0,0,2.967,2.972h.005a2.893,2.893,0,0,0,2.1-.876,3,3,0,0,0,.892-2.1v-.755h4.889v.755a2.98,2.98,0,0,0,5.96-.016v-.744h4.889v.755a2.977,2.977,0,0,0,5.087,2.1,2.893,2.893,0,0,0,.875-2.1v-.755h1.631A1.1,1.1,0,0,1,1105.062,422.978Z" transform="translate(-1071.938 -418.168)" fill="#573eea"/>
          <path id="Path_14162" data-name="Path 14162" d="M1135.17,451.1a6.489,6.489,0,0,0,1.112-3.635v-2.185a6.412,6.412,0,1,0-12.822-.263v2.456a6.481,6.481,0,0,0,1.113,3.635,1.891,1.891,0,0,0-.216.134,13.96,13.96,0,0,0-4.4-3.984,8.349,8.349,0,0,0,1.436-4.692v-2.791a8.209,8.209,0,0,0-3.916-7.174,7.037,7.037,0,0,0-1.341-.671,3.372,3.372,0,0,0-.642-.213,7.681,7.681,0,0,0-2.159-.349,8.331,8.331,0,0,0-2.535.349,8.157,8.157,0,0,0-3.367,1.973,8.257,8.257,0,0,0-2.506,5.739v3.138a8.415,8.415,0,0,0,1.423,4.692,13.857,13.857,0,0,0-5.7,6.209,9.278,9.278,0,0,0-.55,1.354,4.635,4.635,0,0,0-.2.629,13.59,13.59,0,0,0-.576,3.916v1.4c0,2.87,1.289,4.208,4.208,4.208H1122.8a3.5,3.5,0,0,0,1.3-.065h13.279a2.936,2.936,0,0,0,3.272-2.536,3.372,3.372,0,0,0,0-.736v-1.086A10.919,10.919,0,0,0,1135.17,451.1Zm-16.924,2.722-6.17,6.17a.747.747,0,0,1-.562.242.858.858,0,0,1-.55-.242l-2.869-2.869c-.013,0-.013-.013-.027-.013a.82.82,0,0,1,1.181-1.138l2.323,2.323,4.76-4.774.805-.8a.812.812,0,0,1,1.112-.04.06.06,0,0,1,0,.026.789.789,0,0,1-.011,1.115l-.005.005Zm14.857,6.961-1.1,1.113-2.133-2.133-2.12,2.133-1.113-1.113,2.133-2.12-2.133-2.12,1.113-1.112,2.12,2.132,2.133-2.132,1.1,1.112-2.12,2.12Z" transform="translate(-1081.796 -421.583)" fill="#573eea"/>
        </g>
      </g>
    </g>
  </g>
</svg>
