<svg xmlns="http://www.w3.org/2000/svg" width="12.125" height="12.125" viewBox="0 0 12.125 12.125"><defs><style>.a{fill:#fff;}</style></defs><g transform="translate(0 0)"><g transform="translate(0 0)"><path class="a" d="M222.513,129.87a6.063,6.063,0,1,0,6.063,6.063A6.063,6.063,0,0,0,222.513,129.87Zm3.161,4.971a3.974,3.974,0,0,1-6.114,3.529,2.809,2.809,0,0,0,2.069-.579,1.4,1.4,0,0,1-1.305-.971,1.4,1.4,0,0,0,.631-.024,1.4,1.4,0,0,1-1.121-1.388,1.391,1.391,0,0,0,.633.175,1.4,1.4,0,0,1-.432-1.866,3.966,3.966,0,0,0,2.88,1.46A1.4,1.4,0,0,1,225.3,133.9a2.8,2.8,0,0,0,.887-.339,1.4,1.4,0,0,1-.614.773,2.792,2.792,0,0,0,.8-.22A2.831,2.831,0,0,1,225.675,134.841Z" transform="translate(-216.451 -129.87)"/></g><path class="a" d="M0,6.063a6.063,6.063,0,1,1,6.062,6.063A6.063,6.063,0,0,1,0,6.063ZM5.252,9.128A3.953,3.953,0,0,0,9.224,4.971a2.831,2.831,0,0,0,.7-.723,2.792,2.792,0,0,1-.8.22,1.4,1.4,0,0,0,.614-.773,2.8,2.8,0,0,1-.887.339A1.4,1.4,0,0,0,6.464,5.308a3.966,3.966,0,0,1-2.88-1.46,1.4,1.4,0,0,0,.432,1.866,1.391,1.391,0,0,1-.633-.175A1.4,1.4,0,0,0,4.5,6.927a1.4,1.4,0,0,1-.631.024,1.4,1.4,0,0,0,1.305.971A2.809,2.809,0,0,1,3.109,8.5,3.955,3.955,0,0,0,5.252,9.128Z" transform="translate(0)"/></g></svg>