<svg xmlns="http://www.w3.org/2000/svg" width="35.053" height="35.053" viewBox="0 0 35.053 35.053">
  <g id="baseline-transfer_within_a_station-24px" transform="translate(0.001)">
    <path id="Path_1955" data-name="Path 1955" d="M0,0H35.053V35.053H0Z" transform="translate(-0.001)" fill="none"/>
    <path id="Path_1956" data-name="Path 1956" d="M23.163,21.948V19.392l-3.637,3.651,3.637,3.651V24.139h8.048V21.948Zm4.411,6.207H19.527v2.191h8.048V32.9l3.637-3.651L27.574,25.6ZM12.954,7.342a2.921,2.921,0,1,0-2.921-2.921A2.93,2.93,0,0,0,12.954,7.342ZM7.477,12.308,3.461,32.9H6.528L9.084,21.217l3.14,2.921V32.9h2.921V21.875l-2.994-2.994.876-4.382a10.191,10.191,0,0,0,7.96,3.8V15.375A7.488,7.488,0,0,1,14.634,11.8L13.246,9.46a2.849,2.849,0,0,0-2.483-1.388,2.93,2.93,0,0,0-1.1.219L2,11.432V18.3H4.921V13.4l2.556-1.1" transform="translate(0.92 0.691)" fill="#fff"/>
  </g>
</svg>
