<svg xmlns="http://www.w3.org/2000/svg" xmlns:xlink="http://www.w3.org/1999/xlink" width="26" height="25" viewBox="0 0 26 25">
  <defs>
    <clipPath id="clip-path">
      <rect id="SVGID" width="26" height="25" transform="translate(-0.25 0.344)" fill="#fff"/>
    </clipPath>
  </defs>
  <g id="WWW" transform="translate(0.25 -0.344)">
    <g id="Group_2" data-name="Group 2" clip-path="url(#clip-path)">
      <g id="Group_1" data-name="Group 1" transform="translate(3.165 3.131)">
        <path id="Path_1354" data-name="Path 1354" d="M674.963,377.043h-7.347a.185.185,0,0,0-.186.19c.022.862.08,1.684.169,2.462a.187.187,0,0,0,.23.16,14.095,14.095,0,0,1,6.921,0,.187.187,0,0,0,.23-.16c.089-.777.146-1.6.169-2.462a.185.185,0,0,0-.186-.19Zm0,0" transform="translate(-661.797 -366.922)" fill="#fff"/>
        <path id="Path_1355" data-name="Path 1355" d="M674.979,373.408a.185.185,0,0,0-.23-.159,14.13,14.13,0,0,1-6.921,0,.185.185,0,0,0-.23.159c-.089.778-.147,1.6-.169,2.462a.186.186,0,0,0,.186.191h7.347a.186.186,0,0,0,.186-.191c-.022-.861-.08-1.683-.169-2.462Zm0,0" transform="translate(-661.797 -367.13)" fill="#fff"/>
        <path id="Path_1356" data-name="Path 1356" d="M674.729,372.155a14.865,14.865,0,0,0-1.434-4.427.186.186,0,0,0-.125-.092,9.607,9.607,0,0,0-3.8,0,.186.186,0,0,0-.125.092,14.864,14.864,0,0,0-1.434,4.427.185.185,0,0,0,.134.211,12.829,12.829,0,0,0,6.653,0,.185.185,0,0,0,.134-.211Zm0,0" transform="translate(-661.777 -367.447)" fill="#fff"/>
        <path id="Path_1357" data-name="Path 1357" d="M674.857,368.261a.186.186,0,0,0-.25.237l0,.008a18.589,18.589,0,0,1,.876,3.166.187.187,0,0,0,.254.137,12.788,12.788,0,0,0,2.087-1.093.186.186,0,0,0,.036-.284c-.075-.081-.153-.161-.231-.24a9.534,9.534,0,0,0-2.776-1.932Zm0,0" transform="translate(-661.406 -367.403)" fill="#fff"/>
        <path id="Path_1358" data-name="Path 1358" d="M676.075,376.159h4.069a.186.186,0,0,0,.186-.2,9.43,9.43,0,0,0-1.529-4.435.187.187,0,0,0-.26-.053,13.921,13.921,0,0,1-2.257,1.209q-.244.1-.49.2a.187.187,0,0,0-.119.2,29.11,29.11,0,0,1,.214,2.9.188.188,0,0,0,.187.182Zm0,0" transform="translate(-661.346 -367.229)" fill="#fff"/>
        <path id="Path_1359" data-name="Path 1359" d="M667.808,381.08a14.876,14.876,0,0,0,1.434,4.427.186.186,0,0,0,.125.092,9.661,9.661,0,0,0,3.8,0,.186.186,0,0,0,.125-.092,14.876,14.876,0,0,0,1.434-4.427.186.186,0,0,0-.134-.212,12.829,12.829,0,0,0-6.653,0,.186.186,0,0,0-.134.212Zm0,0" transform="translate(-661.777 -366.737)" fill="#fff"/>
        <path id="Path_1360" data-name="Path 1360" d="M666.136,380.523q.244-.1.49-.2a.187.187,0,0,0,.119-.2c-.117-.934-.19-1.908-.215-2.906a.185.185,0,0,0-.186-.181h-4.069a.185.185,0,0,0-.186.2,9.424,9.424,0,0,0,1.529,4.435.186.186,0,0,0,.259.053,13.96,13.96,0,0,1,2.257-1.209Zm0,0" transform="translate(-662.089 -366.922)" fill="#fff"/>
        <path id="Path_1361" data-name="Path 1361" d="M677.828,382.425a12.8,12.8,0,0,0-2.087-1.093.187.187,0,0,0-.254.137,18.519,18.519,0,0,1-.876,3.166l0,.008a.186.186,0,0,0,.25.237,9.519,9.519,0,0,0,2.776-1.933q.119-.119.231-.241a.185.185,0,0,0-.036-.283Zm0,0" transform="translate(-661.406 -366.688)" fill="#fff"/>
        <path id="Path_1362" data-name="Path 1362" d="M675.888,377.224a29.13,29.13,0,0,1-.214,2.906.187.187,0,0,0,.119.2q.247.093.49.2a14,14,0,0,1,2.257,1.209.186.186,0,0,0,.26-.053,9.422,9.422,0,0,0,1.529-4.435.185.185,0,0,0-.186-.2h-4.069a.187.187,0,0,0-.187.181Zm0,0" transform="translate(-661.346 -366.922)" fill="#fff"/>
        <path id="Path_1363" data-name="Path 1363" d="M664.521,370.717a12.841,12.841,0,0,0,2.088,1.093.187.187,0,0,0,.254-.137,18.4,18.4,0,0,1,.876-3.166l0-.008a.186.186,0,0,0-.25-.237,9.518,9.518,0,0,0-2.776,1.932c-.079.079-.156.159-.232.24a.188.188,0,0,0,.036.284Zm0,0" transform="translate(-661.961 -367.403)" fill="#fff"/>
        <path id="Path_1364" data-name="Path 1364" d="M666.527,376.159a29.229,29.229,0,0,1,.218-3.087.187.187,0,0,0-.119-.2q-.247-.093-.49-.2a13.879,13.879,0,0,1-2.257-1.209.187.187,0,0,0-.259.053,9.431,9.431,0,0,0-1.529,4.435.186.186,0,0,0,.186.2Zm0,0" transform="translate(-662.089 -367.229)" fill="#fff"/>
        <path id="Path_1365" data-name="Path 1365" d="M667.494,384.882a.186.186,0,0,0,.25-.237l0-.008a18.637,18.637,0,0,1-.876-3.166.187.187,0,0,0-.254-.137,12.85,12.85,0,0,0-2.088,1.093.186.186,0,0,0-.036.283c.076.081.153.161.232.241a9.5,9.5,0,0,0,2.776,1.933Zm0,0" transform="translate(-661.961 -366.688)" fill="#fff"/>
      </g>
    </g>
  </g>
</svg>
