<?xml version="1.0" encoding="utf-8"?>
<!-- Generator: Adobe Illustrator 24.1.3, SVG Export Plug-In . SVG Version: 6.00 Build 0)  -->
<svg version="1.1" id="Layer_1" xmlns="http://www.w3.org/2000/svg" xmlns:xlink="http://www.w3.org/1999/xlink" x="0px" y="0px"
	 viewBox="0 0 12.1 12.1" style="enable-background:new 0 0 12.1 12.1;" xml:space="preserve">
<style type="text/css">
	.st0{fill:#FFFFFF;}
</style>
<g>
	<path class="st0" d="M0.2,6.4c0-0.2,0-0.5,0-0.7c0-0.3,0.1-0.5,0.1-0.8c0.5-2.5,2.6-4.5,5.2-4.7C6.8,0.1,8,0.3,9,1
		c2.1,1.3,3.1,3.2,2.9,5.7c-0.1,1.2-0.5,2.2-1.3,3.1c-0.9,1.1-2.1,1.8-3.6,2.1c-0.2,0-0.4,0.1-0.7,0.1c-0.2,0-0.5,0-0.7,0
		c-0.1,0-0.3,0-0.4-0.1c-1.1-0.2-2.1-0.6-2.9-1.3C1.2,9.7,0.5,8.5,0.3,7.1C0.2,6.9,0.2,6.7,0.2,6.4z M6.1,8.7
		C6.1,8.7,6.1,8.7,6.1,8.7c0.1,0,0.2,0,0.3,0c0.8,0,1.6-0.1,2.4-0.1c0.5,0,0.8-0.3,0.9-0.8c0.1-0.4,0.1-0.8,0.1-1.2
		c0-0.7,0-1.4-0.1-2.1C9.6,3.9,9.3,3.7,8.7,3.6C8.4,3.6,8,3.5,7.7,3.5C6.3,3.5,4.9,3.5,3.5,3.6c-0.7,0.1-1,0.3-1.1,1
		C2.4,5.2,2.4,5.8,2.4,6.5c0,0.4,0.1,0.9,0.1,1.3c0.1,0.4,0.3,0.6,0.7,0.7c0.1,0,0.2,0,0.4,0.1C4.4,8.6,5.3,8.6,6.1,8.7z"/>
	<path class="st0" d="M5.3,7.2c0-0.7,0-1.5,0-2.2C6,5.3,6.6,5.7,7.3,6.1C6.6,6.4,6,6.8,5.3,7.2z"/>
</g>
</svg>
